<mxfile host="app.diagrams.net" modified="2023-10-02T15:36:17.509Z" agent="Mozilla/5.0 (X11; Linux x86_64; rv:109.0) Gecko/20100101 Firefox/114.0" version="22.0.0" etag="JCqNehtjYJ5JcBZsGzz0" type="github">
  <diagram name="Page-1" id="6wmpyqcAq3W61nMEwzZ1">
    <mxGraphModel>
      <root>
        <mxCell id="0" />
        <mxCell id="1" parent="0" />
      </root>
    </mxGraphModel>
  </diagram>
</mxfile>
